<?xml version="1.0" encoding="utf-8"?>
<!-- Generator: Adobe Illustrator 26.0.0, SVG Export Plug-In . SVG Version: 6.00 Build 0)  -->
<svg version="1.1" id="Capa_1" xmlns="http://www.w3.org/2000/svg" xmlns:xlink="http://www.w3.org/1999/xlink" x="0px" y="0px"
	 viewBox="0 0 512 512" style="enable-background:new 0 0 512 512;" xml:space="preserve">
<style type="text/css">
	.st0{fill:#374151;}
	.st1{fill:none;}
</style>
<symbol  id="a" viewBox="-54.5 -36.6 109.1 73.2">
	<path class="st0" d="M-35.1-36.6c-10.3-0.4-19,7.7-19.4,18c0,0.4,0,0.9,0,1.3C-54.9-6.9-46.7,1.8-36.3,2.2c0.4,0,0.8,0,1.1,0
		c5.2,0.2,10.3-1.8,13.9-5.6c3.7-3.7,5.7-8.7,5.5-13.9c0.3-10.3-7.8-19-18.1-19.3C-34.3-36.6-34.7-36.6-35.1-36.6z M-28.8-10.9
		c-1.7,1.7-4,2.6-6.3,2.5c-2.3,0.1-4.6-0.8-6.2-2.5c-1.6-1.7-2.5-4.1-2.4-6.4c-0.1-2.3,0.8-4.6,2.4-6.3c1.6-1.7,3.9-2.5,6.2-2.4
		c4.6-0.2,8.5,3.4,8.7,8c0,0.2,0,0.5,0,0.7C-26.3-14.9-27.1-12.6-28.8-10.9z"/>
	<path class="st0" d="M24.3,21.9c-4.5,0.2-8.9-1.9-11.5-5.6c-2.7-3.7-4.1-9.1-4.1-16c0-6.7,1.4-11.8,4.1-15.5
		c2.6-3.7,7-5.8,11.5-5.6c3.1-0.1,6.2,0.9,8.6,2.9c2.3,2.2,3.8,5.1,4.2,8.3h17.5c-0.9-8-4.1-14.3-9.5-19s-12.5-7-21.2-6.9
		c-9.7,0-17.6,3.2-23.7,9.8S-9.2-10.6-9.2,0.4c0,10.9,3.1,19.7,9.2,26.3s14.1,9.9,23.7,9.9c8.8,0,16-2.4,21.6-7.1
		c5.5-4.7,8.6-11.2,9.2-19.6H37.1C36,17.9,31.7,21.9,24.3,21.9z"/>
</symbol>
<rect x="14.6" y="96.7" class="st1" width="496.3" height="336.2"/>
<use xlink:href="#a"  width="109.1" height="73.2" x="-54.5" y="-36.6" transform="matrix(4.5509 0 0 4.5964 255.2041 263.14)" style="overflow:visible;"/>
</svg>
